<svg width="1440" height="1024" viewBox="0 0 1440 1024" fill="none" xmlns="http://www.w3.org/2000/svg">
<rect width="1440" height="1024" fill="white"/>
<rect width="1440" height="1024" fill="#FCFDFF"/>
<rect width="1440" height="1024" fill="#FCFDFF"/>
<path d="M650.938 185V146.225H657.263L676.623 170.92V146.225H684.543V185H678.273L658.858 160.25V185H650.938ZM692.349 185V146.225H710.059C714.386 146.225 717.723 147.325 720.069 149.525C722.416 151.688 723.589 154.713 723.589 158.6C723.589 162.487 722.416 165.53 720.069 167.73C717.723 169.93 714.386 171.03 710.059 171.03H700.874V185H692.349ZM700.874 164.43H708.629C713.139 164.43 715.394 162.487 715.394 158.6C715.394 154.787 713.139 152.88 708.629 152.88H700.874V164.43ZM728.983 185V146.225H736.078L749.168 170.04L762.203 146.225H769.188V185H761.433V161.35L751.423 179.17H746.638L736.683 161.515V185H728.983ZM796.246 185.605C791.883 185.605 788.18 184.78 785.136 183.13C782.13 181.48 779.838 179.17 778.261 176.2C776.685 173.23 775.896 169.747 775.896 165.75C775.896 161.643 776.703 158.087 778.316 155.08C779.966 152.073 782.331 149.745 785.411 148.095C788.491 146.445 792.195 145.62 796.521 145.62C799.235 145.62 801.801 146.005 804.221 146.775C806.678 147.545 808.676 148.572 810.216 149.855L807.466 156.51C805.78 155.263 804.056 154.383 802.296 153.87C800.536 153.32 798.63 153.045 796.576 153.045C792.653 153.045 789.701 154.145 787.721 156.345C785.778 158.508 784.806 161.643 784.806 165.75C784.806 169.893 785.796 173.028 787.776 175.155C789.793 177.282 792.763 178.345 796.686 178.345C798.776 178.345 800.976 178.015 803.286 177.355V169.765H794.926V163.605H810.326V182.635C808.42 183.588 806.22 184.322 803.726 184.835C801.233 185.348 798.74 185.605 796.246 185.605Z" fill="#00917C"/>
<rect x="474" y="696" width="609" height="67" rx="17" fill="#00917C"/>
<path d="M723.329 738V724.224H725.072V736.509H731.099V738H723.329ZM737.097 738.252C736.467 738.252 735.865 738.133 735.291 737.895C734.731 737.657 734.234 737.314 733.8 736.866C733.366 736.404 733.016 735.844 732.75 735.186C732.498 734.514 732.372 733.758 732.372 732.918C732.372 732.064 732.498 731.308 732.75 730.65C733.016 729.978 733.366 729.411 733.8 728.949C734.234 728.487 734.731 728.137 735.291 727.899C735.865 727.661 736.467 727.542 737.097 727.542C737.727 727.542 738.322 727.661 738.882 727.899C739.456 728.137 739.96 728.487 740.394 728.949C740.828 729.411 741.171 729.978 741.423 730.65C741.689 731.308 741.822 732.064 741.822 732.918C741.822 733.758 741.689 734.514 741.423 735.186C741.171 735.844 740.828 736.404 740.394 736.866C739.96 737.314 739.456 737.657 738.882 737.895C738.322 738.133 737.727 738.252 737.097 738.252ZM737.097 736.824C737.531 736.824 737.93 736.733 738.294 736.551C738.658 736.355 738.966 736.089 739.218 735.753C739.484 735.403 739.687 734.99 739.827 734.514C739.967 734.038 740.037 733.506 740.037 732.918C740.037 732.33 739.967 731.798 739.827 731.322C739.687 730.832 739.484 730.412 739.218 730.062C738.966 729.712 738.658 729.446 738.294 729.264C737.93 729.068 737.531 728.97 737.097 728.97C736.663 728.97 736.264 729.068 735.9 729.264C735.536 729.446 735.221 729.712 734.955 730.062C734.703 730.412 734.507 730.832 734.367 731.322C734.227 731.798 734.157 732.33 734.157 732.918C734.157 733.506 734.227 734.038 734.367 734.514C734.507 734.99 734.703 735.403 734.955 735.753C735.221 736.089 735.536 736.355 735.9 736.551C736.264 736.733 736.663 736.824 737.097 736.824ZM747.954 742.704C747.324 742.704 746.75 742.641 746.232 742.515C745.714 742.403 745.266 742.228 744.888 741.99C744.524 741.752 744.237 741.465 744.027 741.129C743.831 740.793 743.733 740.401 743.733 739.953C743.733 739.519 743.866 739.106 744.132 738.714C744.398 738.322 744.762 737.965 745.224 737.643V737.559C744.972 737.405 744.755 737.195 744.573 736.929C744.405 736.649 744.321 736.306 744.321 735.9C744.321 735.466 744.44 735.088 744.678 734.766C744.916 734.444 745.168 734.192 745.434 734.01V733.926C745.098 733.646 744.79 733.275 744.51 732.813C744.244 732.337 744.111 731.791 744.111 731.175C744.111 730.615 744.209 730.111 744.405 729.663C744.615 729.215 744.895 728.837 745.245 728.529C745.595 728.207 746.001 727.962 746.463 727.794C746.939 727.626 747.436 727.542 747.954 727.542C748.234 727.542 748.493 727.57 748.731 727.626C748.983 727.668 749.207 727.724 749.403 727.794H752.952V729.117H750.852C751.09 729.355 751.286 729.656 751.44 730.02C751.608 730.384 751.692 730.783 751.692 731.217C751.692 731.763 751.594 732.26 751.398 732.708C751.202 733.142 750.936 733.513 750.6 733.821C750.264 734.115 749.865 734.346 749.403 734.514C748.955 734.682 748.472 734.766 747.954 734.766C747.702 734.766 747.443 734.738 747.177 734.682C746.911 734.612 746.659 734.521 746.421 734.409C746.239 734.563 746.085 734.738 745.959 734.934C745.833 735.116 745.77 735.347 745.77 735.627C745.77 735.949 745.896 736.215 746.148 736.425C746.4 736.635 746.876 736.74 747.576 736.74H749.55C750.74 736.74 751.629 736.936 752.217 737.328C752.819 737.706 753.12 738.322 753.12 739.176C753.12 739.652 753.001 740.1 752.763 740.52C752.525 740.954 752.182 741.332 751.734 741.654C751.286 741.976 750.74 742.228 750.096 742.41C749.466 742.606 748.752 742.704 747.954 742.704ZM747.954 733.611C748.248 733.611 748.521 733.555 748.773 733.443C749.039 733.331 749.27 733.17 749.466 732.96C749.676 732.75 749.837 732.498 749.949 732.204C750.061 731.896 750.117 731.553 750.117 731.175C750.117 730.419 749.907 729.838 749.487 729.432C749.067 729.012 748.556 728.802 747.954 728.802C747.352 728.802 746.841 729.012 746.421 729.432C746.001 729.838 745.791 730.419 745.791 731.175C745.791 731.553 745.847 731.896 745.959 732.204C746.071 732.498 746.225 732.75 746.421 732.96C746.631 733.17 746.862 733.331 747.114 733.443C747.38 733.555 747.66 733.611 747.954 733.611ZM748.206 741.507C748.696 741.507 749.137 741.444 749.529 741.318C749.935 741.206 750.278 741.052 750.558 740.856C750.838 740.674 751.055 740.457 751.209 740.205C751.363 739.953 751.44 739.694 751.44 739.428C751.44 738.952 751.265 738.623 750.915 738.441C750.565 738.259 750.054 738.168 749.382 738.168H747.618C747.422 738.168 747.205 738.154 746.967 738.126C746.743 738.112 746.519 738.07 746.295 738C745.931 738.266 745.665 738.546 745.497 738.84C745.329 739.134 745.245 739.428 745.245 739.722C745.245 740.268 745.504 740.702 746.022 741.024C746.554 741.346 747.282 741.507 748.206 741.507ZM755.092 738V727.794H756.814V738H755.092ZM755.974 725.694C755.638 725.694 755.351 725.589 755.113 725.379C754.889 725.169 754.777 724.903 754.777 724.581C754.777 724.245 754.889 723.979 755.113 723.783C755.351 723.573 755.638 723.468 755.974 723.468C756.31 723.468 756.59 723.573 756.814 723.783C757.052 723.979 757.171 724.245 757.171 724.581C757.171 724.903 757.052 725.169 756.814 725.379C756.59 725.589 756.31 725.694 755.974 725.694ZM760.26 738V727.794H761.688L761.835 729.264H761.898C762.388 728.774 762.899 728.368 763.431 728.046C763.977 727.71 764.607 727.542 765.321 727.542C766.399 727.542 767.183 727.878 767.673 728.55C768.177 729.222 768.429 730.216 768.429 731.532V738H766.707V731.763C766.707 730.797 766.553 730.104 766.245 729.684C765.937 729.25 765.447 729.033 764.775 729.033C764.243 729.033 763.774 729.166 763.368 729.432C762.962 729.698 762.5 730.09 761.982 730.608V738H760.26ZM775.949 738V723.048H777.671V727.122L777.608 729.222C778.098 728.76 778.609 728.368 779.141 728.046C779.673 727.71 780.296 727.542 781.01 727.542C782.088 727.542 782.872 727.878 783.362 728.55C783.866 729.222 784.118 730.216 784.118 731.532V738H782.396V731.763C782.396 730.797 782.242 730.104 781.934 729.684C781.626 729.25 781.136 729.033 780.464 729.033C779.932 729.033 779.463 729.166 779.057 729.432C778.651 729.698 778.189 730.09 777.671 730.608V738H775.949ZM791.508 738.252C790.822 738.252 790.178 738.133 789.576 737.895C788.988 737.643 788.47 737.293 788.022 736.845C787.588 736.383 787.245 735.823 786.993 735.165C786.741 734.507 786.615 733.758 786.615 732.918C786.615 732.078 786.741 731.329 786.993 730.671C787.259 729.999 787.602 729.432 788.022 728.97C788.456 728.508 788.946 728.158 789.492 727.92C790.038 727.668 790.605 727.542 791.193 727.542C791.837 727.542 792.411 727.654 792.915 727.878C793.433 728.102 793.86 728.424 794.196 728.844C794.546 729.264 794.812 729.768 794.994 730.356C795.176 730.944 795.267 731.602 795.267 732.33C795.267 732.512 795.26 732.694 795.246 732.876C795.246 733.044 795.232 733.191 795.204 733.317H788.316C788.386 734.409 788.722 735.277 789.324 735.921C789.94 736.551 790.738 736.866 791.718 736.866C792.208 736.866 792.656 736.796 793.062 736.656C793.482 736.502 793.881 736.306 794.259 736.068L794.868 737.202C794.42 737.482 793.923 737.727 793.377 737.937C792.831 738.147 792.208 738.252 791.508 738.252ZM788.295 732.078H793.755C793.755 731.042 793.531 730.258 793.083 729.726C792.649 729.18 792.033 728.907 791.235 728.907C790.871 728.907 790.521 728.977 790.185 729.117C789.863 729.257 789.569 729.467 789.303 729.747C789.037 730.013 788.813 730.342 788.631 730.734C788.463 731.126 788.351 731.574 788.295 732.078ZM797.789 738V727.794H799.217L799.364 729.642H799.427C799.777 728.998 800.197 728.487 800.687 728.109C801.191 727.731 801.737 727.542 802.325 727.542C802.731 727.542 803.095 727.612 803.417 727.752L803.081 729.264C802.913 729.208 802.759 729.166 802.619 729.138C802.479 729.11 802.304 729.096 802.094 729.096C801.66 729.096 801.205 729.271 800.729 729.621C800.267 729.971 799.861 730.58 799.511 731.448V738H797.789ZM809.002 738.252C808.316 738.252 807.672 738.133 807.07 737.895C806.482 737.643 805.964 737.293 805.516 736.845C805.082 736.383 804.739 735.823 804.487 735.165C804.235 734.507 804.109 733.758 804.109 732.918C804.109 732.078 804.235 731.329 804.487 730.671C804.753 729.999 805.096 729.432 805.516 728.97C805.95 728.508 806.44 728.158 806.986 727.92C807.532 727.668 808.099 727.542 808.687 727.542C809.331 727.542 809.905 727.654 810.409 727.878C810.927 728.102 811.354 728.424 811.69 728.844C812.04 729.264 812.306 729.768 812.488 730.356C812.67 730.944 812.761 731.602 812.761 732.33C812.761 732.512 812.754 732.694 812.74 732.876C812.74 733.044 812.726 733.191 812.698 733.317H805.81C805.88 734.409 806.216 735.277 806.818 735.921C807.434 736.551 808.232 736.866 809.212 736.866C809.702 736.866 810.15 736.796 810.556 736.656C810.976 736.502 811.375 736.306 811.753 736.068L812.362 737.202C811.914 737.482 811.417 737.727 810.871 737.937C810.325 738.147 809.702 738.252 809.002 738.252ZM805.789 732.078H811.249C811.249 731.042 811.025 730.258 810.577 729.726C810.143 729.18 809.527 728.907 808.729 728.907C808.365 728.907 808.015 728.977 807.679 729.117C807.357 729.257 807.063 729.467 806.797 729.747C806.531 730.013 806.307 730.342 806.125 730.734C805.957 731.126 805.845 731.574 805.789 732.078Z" fill="white"/>
<rect x="480" y="555" width="21" height="18" rx="2" fill="#24A44D"/>
<path d="M513.942 571V559.192H517.632C518.232 559.192 518.784 559.252 519.288 559.372C519.804 559.48 520.242 559.666 520.602 559.93C520.974 560.194 521.262 560.536 521.466 560.956C521.67 561.376 521.772 561.892 521.772 562.504C521.772 563.428 521.532 564.166 521.052 564.718C520.572 565.27 519.924 565.648 519.108 565.852L522.114 571H520.422L517.578 566.014H515.436V571H513.942ZM515.436 564.79H517.416C518.34 564.79 519.048 564.604 519.54 564.232C520.032 563.848 520.278 563.272 520.278 562.504C520.278 561.724 520.032 561.178 519.54 560.866C519.048 560.554 518.34 560.398 517.416 560.398H515.436V564.79ZM527.417 571.216C526.829 571.216 526.277 571.114 525.761 570.91C525.257 570.694 524.813 570.394 524.429 570.01C524.057 569.614 523.763 569.134 523.547 568.57C523.331 568.006 523.223 567.364 523.223 566.644C523.223 565.924 523.331 565.282 523.547 564.718C523.775 564.142 524.069 563.656 524.429 563.26C524.801 562.864 525.221 562.564 525.689 562.36C526.157 562.144 526.643 562.036 527.147 562.036C527.699 562.036 528.191 562.132 528.623 562.324C529.067 562.516 529.433 562.792 529.721 563.152C530.021 563.512 530.249 563.944 530.405 564.448C530.561 564.952 530.639 565.516 530.639 566.14C530.639 566.296 530.633 566.452 530.621 566.608C530.621 566.752 530.609 566.878 530.585 566.986H524.681C524.741 567.922 525.029 568.666 525.545 569.218C526.073 569.758 526.757 570.028 527.597 570.028C528.017 570.028 528.401 569.968 528.749 569.848C529.109 569.716 529.451 569.548 529.775 569.344L530.297 570.316C529.913 570.556 529.487 570.766 529.019 570.946C528.551 571.126 528.017 571.216 527.417 571.216ZM524.663 565.924H529.343C529.343 565.036 529.151 564.364 528.767 563.908C528.395 563.44 527.867 563.206 527.183 563.206C526.871 563.206 526.571 563.266 526.283 563.386C526.007 563.506 525.755 563.686 525.527 563.926C525.299 564.154 525.107 564.436 524.951 564.772C524.807 565.108 524.711 565.492 524.663 565.924ZM532.8 571V562.252H534.024L534.15 563.512H534.204C534.588 563.092 535.002 562.744 535.446 562.468C535.902 562.18 536.394 562.036 536.922 562.036C537.594 562.036 538.116 562.186 538.488 562.486C538.872 562.774 539.154 563.182 539.334 563.71C539.79 563.206 540.246 562.804 540.702 562.504C541.17 562.192 541.674 562.036 542.214 562.036C543.114 562.036 543.78 562.324 544.212 562.9C544.656 563.476 544.878 564.328 544.878 565.456V571H543.402V565.654C543.402 564.826 543.27 564.232 543.006 563.872C542.742 563.5 542.334 563.314 541.782 563.314C541.122 563.314 540.39 563.764 539.586 564.664V571H538.11V565.654C538.11 564.826 537.978 564.232 537.714 563.872C537.45 563.5 537.036 563.314 536.472 563.314C535.812 563.314 535.08 563.764 534.276 564.664V571H532.8ZM551.27 571.216C550.682 571.216 550.13 571.114 549.614 570.91C549.11 570.694 548.666 570.394 548.282 570.01C547.91 569.614 547.616 569.134 547.4 568.57C547.184 568.006 547.076 567.364 547.076 566.644C547.076 565.924 547.184 565.282 547.4 564.718C547.628 564.142 547.922 563.656 548.282 563.26C548.654 562.864 549.074 562.564 549.542 562.36C550.01 562.144 550.496 562.036 551 562.036C551.552 562.036 552.044 562.132 552.476 562.324C552.92 562.516 553.286 562.792 553.574 563.152C553.874 563.512 554.102 563.944 554.258 564.448C554.414 564.952 554.492 565.516 554.492 566.14C554.492 566.296 554.486 566.452 554.474 566.608C554.474 566.752 554.462 566.878 554.438 566.986H548.534C548.594 567.922 548.882 568.666 549.398 569.218C549.926 569.758 550.61 570.028 551.45 570.028C551.87 570.028 552.254 569.968 552.602 569.848C552.962 569.716 553.304 569.548 553.628 569.344L554.15 570.316C553.766 570.556 553.34 570.766 552.872 570.946C552.404 571.126 551.87 571.216 551.27 571.216ZM548.516 565.924H553.196C553.196 565.036 553.004 564.364 552.62 563.908C552.248 563.44 551.72 563.206 551.036 563.206C550.724 563.206 550.424 563.266 550.136 563.386C549.86 563.506 549.608 563.686 549.38 563.926C549.152 564.154 548.96 564.436 548.804 564.772C548.66 565.108 548.564 565.492 548.516 565.924ZM556.654 571V562.252H557.878L558.004 563.512H558.058C558.442 563.092 558.856 562.744 559.3 562.468C559.756 562.18 560.248 562.036 560.776 562.036C561.448 562.036 561.97 562.186 562.342 562.486C562.726 562.774 563.008 563.182 563.188 563.71C563.644 563.206 564.1 562.804 564.556 562.504C565.024 562.192 565.528 562.036 566.068 562.036C566.968 562.036 567.634 562.324 568.066 562.9C568.51 563.476 568.732 564.328 568.732 565.456V571H567.256V565.654C567.256 564.826 567.124 564.232 566.86 563.872C566.596 563.5 566.188 563.314 565.636 563.314C564.976 563.314 564.244 563.764 563.44 564.664V571H561.964V565.654C561.964 564.826 561.832 564.232 561.568 563.872C561.304 563.5 560.89 563.314 560.326 563.314C559.666 563.314 558.934 563.764 558.13 564.664V571H556.654ZM575.448 571.216C575.04 571.216 574.614 571.12 574.17 570.928C573.738 570.724 573.33 570.448 572.946 570.1H572.892L572.766 571H571.578V558.184H573.054V561.676L573.018 563.26C573.414 562.912 573.846 562.624 574.314 562.396C574.782 562.156 575.262 562.036 575.754 562.036C576.318 562.036 576.816 562.144 577.248 562.36C577.68 562.564 578.04 562.864 578.328 563.26C578.628 563.644 578.85 564.112 578.994 564.664C579.15 565.204 579.228 565.81 579.228 566.482C579.228 567.226 579.126 567.892 578.922 568.48C578.718 569.068 578.442 569.566 578.094 569.974C577.746 570.382 577.344 570.694 576.888 570.91C576.432 571.114 575.952 571.216 575.448 571.216ZM575.196 569.974C575.556 569.974 575.886 569.896 576.186 569.74C576.498 569.572 576.762 569.344 576.978 569.056C577.206 568.756 577.38 568.39 577.5 567.958C577.632 567.526 577.698 567.04 577.698 566.5C577.698 566.02 577.656 565.582 577.572 565.186C577.488 564.79 577.35 564.454 577.158 564.178C576.978 563.89 576.738 563.668 576.438 563.512C576.15 563.356 575.802 563.278 575.394 563.278C574.686 563.278 573.906 563.674 573.054 564.466V569.056C573.438 569.392 573.816 569.632 574.188 569.776C574.572 569.908 574.908 569.974 575.196 569.974ZM585.073 571.216C584.485 571.216 583.933 571.114 583.417 570.91C582.913 570.694 582.469 570.394 582.085 570.01C581.713 569.614 581.419 569.134 581.203 568.57C580.987 568.006 580.879 567.364 580.879 566.644C580.879 565.924 580.987 565.282 581.203 564.718C581.431 564.142 581.725 563.656 582.085 563.26C582.457 562.864 582.877 562.564 583.345 562.36C583.813 562.144 584.299 562.036 584.803 562.036C585.355 562.036 585.847 562.132 586.279 562.324C586.723 562.516 587.089 562.792 587.377 563.152C587.677 563.512 587.905 563.944 588.061 564.448C588.217 564.952 588.295 565.516 588.295 566.14C588.295 566.296 588.289 566.452 588.277 566.608C588.277 566.752 588.265 566.878 588.241 566.986H582.337C582.397 567.922 582.685 568.666 583.201 569.218C583.729 569.758 584.413 570.028 585.253 570.028C585.673 570.028 586.057 569.968 586.405 569.848C586.765 569.716 587.107 569.548 587.431 569.344L587.953 570.316C587.569 570.556 587.143 570.766 586.675 570.946C586.207 571.126 585.673 571.216 585.073 571.216ZM582.319 565.924H586.999C586.999 565.036 586.807 564.364 586.423 563.908C586.051 563.44 585.523 563.206 584.839 563.206C584.527 563.206 584.227 563.266 583.939 563.386C583.663 563.506 583.411 563.686 583.183 563.926C582.955 564.154 582.763 564.436 582.607 564.772C582.463 565.108 582.367 565.492 582.319 565.924ZM590.456 571V562.252H591.68L591.806 563.836H591.86C592.16 563.284 592.52 562.846 592.94 562.522C593.372 562.198 593.84 562.036 594.344 562.036C594.692 562.036 595.004 562.096 595.28 562.216L594.992 563.512C594.848 563.464 594.716 563.428 594.596 563.404C594.476 563.38 594.326 563.368 594.146 563.368C593.774 563.368 593.384 563.518 592.976 563.818C592.58 564.118 592.232 564.64 591.932 565.384V571H590.456ZM600.3 571V562.252H601.524L601.65 563.512H601.704C602.088 563.092 602.502 562.744 602.946 562.468C603.402 562.18 603.894 562.036 604.422 562.036C605.094 562.036 605.616 562.186 605.988 562.486C606.372 562.774 606.654 563.182 606.834 563.71C607.29 563.206 607.746 562.804 608.202 562.504C608.67 562.192 609.174 562.036 609.714 562.036C610.614 562.036 611.28 562.324 611.712 562.9C612.156 563.476 612.378 564.328 612.378 565.456V571H610.902V565.654C610.902 564.826 610.77 564.232 610.506 563.872C610.242 563.5 609.834 563.314 609.282 563.314C608.622 563.314 607.89 563.764 607.086 564.664V571H605.61V565.654C605.61 564.826 605.478 564.232 605.214 563.872C604.95 563.5 604.536 563.314 603.972 563.314C603.312 563.314 602.58 563.764 601.776 564.664V571H600.3ZM618.77 571.216C618.182 571.216 617.63 571.114 617.114 570.91C616.61 570.694 616.166 570.394 615.782 570.01C615.41 569.614 615.116 569.134 614.9 568.57C614.684 568.006 614.576 567.364 614.576 566.644C614.576 565.924 614.684 565.282 614.9 564.718C615.128 564.142 615.422 563.656 615.782 563.26C616.154 562.864 616.574 562.564 617.042 562.36C617.51 562.144 617.996 562.036 618.5 562.036C619.052 562.036 619.544 562.132 619.976 562.324C620.42 562.516 620.786 562.792 621.074 563.152C621.374 563.512 621.602 563.944 621.758 564.448C621.914 564.952 621.992 565.516 621.992 566.14C621.992 566.296 621.986 566.452 621.974 566.608C621.974 566.752 621.962 566.878 621.938 566.986H616.034C616.094 567.922 616.382 568.666 616.898 569.218C617.426 569.758 618.11 570.028 618.95 570.028C619.37 570.028 619.754 569.968 620.102 569.848C620.462 569.716 620.804 569.548 621.128 569.344L621.65 570.316C621.266 570.556 620.84 570.766 620.372 570.946C619.904 571.126 619.37 571.216 618.77 571.216ZM616.016 565.924H620.696C620.696 565.036 620.504 564.364 620.12 563.908C619.748 563.44 619.22 563.206 618.536 563.206C618.224 563.206 617.924 563.266 617.636 563.386C617.36 563.506 617.108 563.686 616.88 563.926C616.652 564.154 616.46 564.436 616.304 564.772C616.16 565.108 616.064 565.492 616.016 565.924Z" fill="black"/>
<path d="M922.807 574V562.192H929.611V563.452H924.301V567.448H928.801V568.708H924.301V574H922.807ZM934.713 574.216C934.173 574.216 933.657 574.114 933.165 573.91C932.685 573.706 932.259 573.412 931.887 573.028C931.515 572.632 931.215 572.152 930.987 571.588C930.771 571.012 930.663 570.364 930.663 569.644C930.663 568.912 930.771 568.264 930.987 567.7C931.215 567.124 931.515 566.638 931.887 566.242C932.259 565.846 932.685 565.546 933.165 565.342C933.657 565.138 934.173 565.036 934.713 565.036C935.253 565.036 935.763 565.138 936.243 565.342C936.735 565.546 937.167 565.846 937.539 566.242C937.911 566.638 938.205 567.124 938.421 567.7C938.649 568.264 938.763 568.912 938.763 569.644C938.763 570.364 938.649 571.012 938.421 571.588C938.205 572.152 937.911 572.632 937.539 573.028C937.167 573.412 936.735 573.706 936.243 573.91C935.763 574.114 935.253 574.216 934.713 574.216ZM934.713 572.992C935.085 572.992 935.427 572.914 935.739 572.758C936.051 572.59 936.315 572.362 936.531 572.074C936.759 571.774 936.933 571.42 937.053 571.012C937.173 570.604 937.233 570.148 937.233 569.644C937.233 569.14 937.173 568.684 937.053 568.276C936.933 567.856 936.759 567.496 936.531 567.196C936.315 566.896 936.051 566.668 935.739 566.512C935.427 566.344 935.085 566.26 934.713 566.26C934.341 566.26 933.999 566.344 933.687 566.512C933.375 566.668 933.105 566.896 932.877 567.196C932.661 567.496 932.493 567.856 932.373 568.276C932.253 568.684 932.193 569.14 932.193 569.644C932.193 570.148 932.253 570.604 932.373 571.012C932.493 571.42 932.661 571.774 932.877 572.074C933.105 572.362 933.375 572.59 933.687 572.758C933.999 572.914 934.341 572.992 934.713 572.992ZM941.067 574V565.252H942.291L942.417 566.836H942.471C942.771 566.284 943.131 565.846 943.551 565.522C943.983 565.198 944.451 565.036 944.955 565.036C945.303 565.036 945.615 565.096 945.891 565.216L945.603 566.512C945.459 566.464 945.327 566.428 945.207 566.404C945.087 566.38 944.937 566.368 944.757 566.368C944.385 566.368 943.995 566.518 943.587 566.818C943.191 567.118 942.843 567.64 942.543 568.384V574H941.067ZM950.083 578.032C949.543 578.032 949.051 577.978 948.607 577.87C948.163 577.774 947.779 577.624 947.455 577.42C947.143 577.216 946.897 576.97 946.717 576.682C946.549 576.394 946.465 576.058 946.465 575.674C946.465 575.302 946.579 574.948 946.807 574.612C947.035 574.276 947.347 573.97 947.743 573.694V573.622C947.527 573.49 947.341 573.31 947.185 573.082C947.041 572.842 946.969 572.548 946.969 572.2C946.969 571.828 947.071 571.504 947.275 571.228C947.479 570.952 947.695 570.736 947.923 570.58V570.508C947.635 570.268 947.371 569.95 947.131 569.554C946.903 569.146 946.789 568.678 946.789 568.15C946.789 567.67 946.873 567.238 947.041 566.854C947.221 566.47 947.461 566.146 947.761 565.882C948.061 565.606 948.409 565.396 948.805 565.252C949.213 565.108 949.639 565.036 950.083 565.036C950.323 565.036 950.545 565.06 950.749 565.108C950.965 565.144 951.157 565.192 951.325 565.252H954.367V566.386H952.567C952.771 566.59 952.939 566.848 953.071 567.16C953.215 567.472 953.287 567.814 953.287 568.186C953.287 568.654 953.203 569.08 953.035 569.464C952.867 569.836 952.639 570.154 952.351 570.418C952.063 570.67 951.721 570.868 951.325 571.012C950.941 571.156 950.527 571.228 950.083 571.228C949.867 571.228 949.645 571.204 949.417 571.156C949.189 571.096 948.973 571.018 948.769 570.922C948.613 571.054 948.481 571.204 948.373 571.372C948.265 571.528 948.211 571.726 948.211 571.966C948.211 572.242 948.319 572.47 948.535 572.65C948.751 572.83 949.159 572.92 949.759 572.92H951.451C952.471 572.92 953.233 573.088 953.737 573.424C954.253 573.748 954.511 574.276 954.511 575.008C954.511 575.416 954.409 575.8 954.205 576.16C954.001 576.532 953.707 576.856 953.323 577.132C952.939 577.408 952.471 577.624 951.919 577.78C951.379 577.948 950.767 578.032 950.083 578.032ZM950.083 570.238C950.335 570.238 950.569 570.19 950.785 570.094C951.013 569.998 951.211 569.86 951.379 569.68C951.559 569.5 951.697 569.284 951.793 569.032C951.889 568.768 951.937 568.474 951.937 568.15C951.937 567.502 951.757 567.004 951.397 566.656C951.037 566.296 950.599 566.116 950.083 566.116C949.567 566.116 949.129 566.296 948.769 566.656C948.409 567.004 948.229 567.502 948.229 568.15C948.229 568.474 948.277 568.768 948.373 569.032C948.469 569.284 948.601 569.5 948.769 569.68C948.949 569.86 949.147 569.998 949.363 570.094C949.591 570.19 949.831 570.238 950.083 570.238ZM950.299 577.006C950.719 577.006 951.097 576.952 951.433 576.844C951.781 576.748 952.075 576.616 952.315 576.448C952.555 576.292 952.741 576.106 952.873 575.89C953.005 575.674 953.071 575.452 953.071 575.224C953.071 574.816 952.921 574.534 952.621 574.378C952.321 574.222 951.883 574.144 951.307 574.144H949.795C949.627 574.144 949.441 574.132 949.237 574.108C949.045 574.096 948.853 574.06 948.661 574C948.349 574.228 948.121 574.468 947.977 574.72C947.833 574.972 947.761 575.224 947.761 575.476C947.761 575.944 947.983 576.316 948.427 576.592C948.883 576.868 949.507 577.006 950.299 577.006ZM959.357 574.216C958.817 574.216 958.301 574.114 957.809 573.91C957.329 573.706 956.903 573.412 956.531 573.028C956.159 572.632 955.859 572.152 955.631 571.588C955.415 571.012 955.307 570.364 955.307 569.644C955.307 568.912 955.415 568.264 955.631 567.7C955.859 567.124 956.159 566.638 956.531 566.242C956.903 565.846 957.329 565.546 957.809 565.342C958.301 565.138 958.817 565.036 959.357 565.036C959.897 565.036 960.407 565.138 960.887 565.342C961.379 565.546 961.811 565.846 962.183 566.242C962.555 566.638 962.849 567.124 963.065 567.7C963.293 568.264 963.407 568.912 963.407 569.644C963.407 570.364 963.293 571.012 963.065 571.588C962.849 572.152 962.555 572.632 962.183 573.028C961.811 573.412 961.379 573.706 960.887 573.91C960.407 574.114 959.897 574.216 959.357 574.216ZM959.357 572.992C959.729 572.992 960.071 572.914 960.383 572.758C960.695 572.59 960.959 572.362 961.175 572.074C961.403 571.774 961.577 571.42 961.697 571.012C961.817 570.604 961.877 570.148 961.877 569.644C961.877 569.14 961.817 568.684 961.697 568.276C961.577 567.856 961.403 567.496 961.175 567.196C960.959 566.896 960.695 566.668 960.383 566.512C960.071 566.344 959.729 566.26 959.357 566.26C958.985 566.26 958.643 566.344 958.331 566.512C958.019 566.668 957.749 566.896 957.521 567.196C957.305 567.496 957.137 567.856 957.017 568.276C956.897 568.684 956.837 569.14 956.837 569.644C956.837 570.148 956.897 570.604 957.017 571.012C957.137 571.42 957.305 571.774 957.521 572.074C957.749 572.362 958.019 572.59 958.331 572.758C958.643 572.914 958.985 572.992 959.357 572.992ZM968.167 574.216C967.699 574.216 967.303 574.144 966.979 574C966.667 573.856 966.409 573.658 966.205 573.406C966.013 573.154 965.875 572.848 965.791 572.488C965.707 572.128 965.665 571.732 965.665 571.3V566.458H964.369V565.342L965.737 565.252L965.917 562.804H967.159V565.252H969.517V566.458H967.159V571.318C967.159 571.858 967.255 572.278 967.447 572.578C967.651 572.866 968.005 573.01 968.509 573.01C968.665 573.01 968.833 572.986 969.013 572.938C969.193 572.89 969.355 572.836 969.499 572.776L969.787 573.892C969.547 573.976 969.283 574.048 968.995 574.108C968.719 574.18 968.443 574.216 968.167 574.216ZM975.098 577.69V565.252H976.322L976.448 566.26H976.502C976.898 565.924 977.33 565.636 977.798 565.396C978.278 565.156 978.776 565.036 979.292 565.036C979.856 565.036 980.354 565.144 980.786 565.36C981.218 565.564 981.578 565.864 981.866 566.26C982.154 566.644 982.37 567.112 982.514 567.664C982.67 568.204 982.748 568.816 982.748 569.5C982.748 570.244 982.646 570.91 982.442 571.498C982.238 572.074 981.962 572.566 981.614 572.974C981.266 573.382 980.864 573.694 980.408 573.91C979.952 574.114 979.472 574.216 978.968 574.216C978.56 574.216 978.152 574.126 977.744 573.946C977.348 573.766 976.946 573.52 976.538 573.208L976.574 574.738V577.69H975.098ZM978.716 572.974C979.076 572.974 979.406 572.896 979.706 572.74C980.018 572.572 980.282 572.344 980.498 572.056C980.726 571.756 980.9 571.39 981.02 570.958C981.152 570.526 981.218 570.04 981.218 569.5C981.218 569.02 981.176 568.582 981.092 568.186C981.008 567.79 980.87 567.454 980.678 567.178C980.498 566.89 980.258 566.668 979.958 566.512C979.67 566.356 979.322 566.278 978.914 566.278C978.542 566.278 978.164 566.38 977.78 566.584C977.408 566.788 977.006 567.082 976.574 567.466V572.056C976.97 572.392 977.354 572.632 977.726 572.776C978.098 572.908 978.428 572.974 978.716 572.974ZM986.852 574.216C986.12 574.216 985.508 574 985.016 573.568C984.536 573.136 984.296 572.524 984.296 571.732C984.296 570.772 984.722 570.04 985.574 569.536C986.426 569.02 987.788 568.66 989.66 568.456C989.66 568.18 989.63 567.91 989.57 567.646C989.522 567.382 989.432 567.148 989.3 566.944C989.168 566.74 988.982 566.578 988.742 566.458C988.514 566.326 988.22 566.26 987.86 566.26C987.356 566.26 986.882 566.356 986.438 566.548C985.994 566.74 985.598 566.956 985.25 567.196L984.674 566.17C985.082 565.906 985.58 565.654 986.168 565.414C986.756 565.162 987.404 565.036 988.112 565.036C989.18 565.036 989.954 565.366 990.434 566.026C990.914 566.674 991.154 567.544 991.154 568.636V574H989.93L989.804 572.956H989.75C989.33 573.304 988.88 573.604 988.4 573.856C987.92 574.096 987.404 574.216 986.852 574.216ZM987.284 573.028C987.704 573.028 988.1 572.932 988.472 572.74C988.844 572.536 989.24 572.242 989.66 571.858V569.428C988.928 569.524 988.31 569.638 987.806 569.77C987.314 569.902 986.912 570.058 986.6 570.238C986.3 570.418 986.078 570.628 985.934 570.868C985.802 571.096 985.736 571.348 985.736 571.624C985.736 572.128 985.886 572.488 986.186 572.704C986.486 572.92 986.852 573.028 987.284 573.028ZM996.193 574.216C995.569 574.216 994.975 574.102 994.411 573.874C993.847 573.646 993.355 573.358 992.935 573.01L993.673 572.02C994.057 572.332 994.447 572.584 994.843 572.776C995.251 572.968 995.719 573.064 996.247 573.064C996.823 573.064 997.255 572.932 997.543 572.668C997.831 572.404 997.975 572.08 997.975 571.696C997.975 571.468 997.915 571.27 997.795 571.102C997.675 570.934 997.519 570.79 997.327 570.67C997.147 570.538 996.937 570.424 996.697 570.328C996.457 570.232 996.217 570.136 995.977 570.04C995.665 569.932 995.353 569.812 995.041 569.68C994.729 569.536 994.447 569.368 994.195 569.176C993.955 568.972 993.757 568.738 993.601 568.474C993.445 568.21 993.367 567.892 993.367 567.52C993.367 567.172 993.433 566.848 993.565 566.548C993.709 566.236 993.907 565.972 994.159 565.756C994.423 565.528 994.741 565.354 995.113 565.234C995.485 565.102 995.905 565.036 996.373 565.036C996.925 565.036 997.429 565.132 997.885 565.324C998.353 565.516 998.755 565.75 999.091 566.026L998.389 566.962C998.089 566.734 997.777 566.548 997.453 566.404C997.129 566.26 996.775 566.188 996.391 566.188C995.839 566.188 995.431 566.314 995.167 566.566C994.915 566.818 994.789 567.112 994.789 567.448C994.789 567.652 994.843 567.832 994.951 567.988C995.059 568.132 995.203 568.264 995.383 568.384C995.563 568.492 995.767 568.594 995.995 568.69C996.235 568.774 996.481 568.864 996.733 568.96C997.045 569.08 997.357 569.206 997.669 569.338C997.993 569.47 998.281 569.638 998.533 569.842C998.785 570.034 998.989 570.274 999.145 570.562C999.313 570.85 999.397 571.198 999.397 571.606C999.397 571.966 999.325 572.302 999.181 572.614C999.049 572.926 998.845 573.202 998.569 573.442C998.305 573.682 997.969 573.868 997.561 574C997.165 574.144 996.709 574.216 996.193 574.216ZM1003.73 574.216C1003.11 574.216 1002.52 574.102 1001.95 573.874C1001.39 573.646 1000.9 573.358 1000.48 573.01L1001.21 572.02C1001.6 572.332 1001.99 572.584 1002.38 572.776C1002.79 572.968 1003.26 573.064 1003.79 573.064C1004.36 573.064 1004.8 572.932 1005.08 572.668C1005.37 572.404 1005.52 572.08 1005.52 571.696C1005.52 571.468 1005.46 571.27 1005.34 571.102C1005.22 570.934 1005.06 570.79 1004.87 570.67C1004.69 570.538 1004.48 570.424 1004.24 570.328C1004 570.232 1003.76 570.136 1003.52 570.04C1003.21 569.932 1002.89 569.812 1002.58 569.68C1002.27 569.536 1001.99 569.368 1001.74 569.176C1001.5 568.972 1001.3 568.738 1001.14 568.474C1000.99 568.21 1000.91 567.892 1000.91 567.52C1000.91 567.172 1000.97 566.848 1001.11 566.548C1001.25 566.236 1001.45 565.972 1001.7 565.756C1001.96 565.528 1002.28 565.354 1002.65 565.234C1003.03 565.102 1003.45 565.036 1003.91 565.036C1004.47 565.036 1004.97 565.132 1005.43 565.324C1005.89 565.516 1006.3 565.75 1006.63 566.026L1005.93 566.962C1005.63 566.734 1005.32 566.548 1004.99 566.404C1004.67 566.26 1004.32 566.188 1003.93 566.188C1003.38 566.188 1002.97 566.314 1002.71 566.566C1002.46 566.818 1002.33 567.112 1002.33 567.448C1002.33 567.652 1002.38 567.832 1002.49 567.988C1002.6 568.132 1002.74 568.264 1002.92 568.384C1003.1 568.492 1003.31 568.594 1003.54 568.69C1003.78 568.774 1004.02 568.864 1004.27 568.96C1004.59 569.08 1004.9 569.206 1005.21 569.338C1005.53 569.47 1005.82 569.638 1006.07 569.842C1006.33 570.034 1006.53 570.274 1006.69 570.562C1006.85 570.85 1006.94 571.198 1006.94 571.606C1006.94 571.966 1006.87 572.302 1006.72 572.614C1006.59 572.926 1006.39 573.202 1006.11 573.442C1005.85 573.682 1005.51 573.868 1005.1 574C1004.71 574.144 1004.25 574.216 1003.73 574.216ZM1010.37 574L1007.94 565.252H1009.46L1010.75 570.31C1010.85 570.73 1010.94 571.138 1011.02 571.534C1011.11 571.93 1011.19 572.332 1011.27 572.74H1011.35C1011.44 572.332 1011.54 571.93 1011.63 571.534C1011.73 571.126 1011.83 570.718 1011.94 570.31L1013.29 565.252H1014.73L1016.1 570.31C1016.21 570.73 1016.31 571.138 1016.4 571.534C1016.51 571.93 1016.61 572.332 1016.71 572.74H1016.78C1016.88 572.332 1016.97 571.93 1017.05 571.534C1017.14 571.138 1017.23 570.73 1017.32 570.31L1018.6 565.252H1020L1017.66 574H1015.86L1014.6 569.302C1014.5 568.882 1014.39 568.468 1014.3 568.06C1014.21 567.652 1014.12 567.226 1014.01 566.782H1013.94C1013.84 567.226 1013.75 567.658 1013.65 568.078C1013.55 568.486 1013.45 568.9 1013.33 569.32L1012.1 574H1010.37ZM1025.24 574.216C1024.7 574.216 1024.18 574.114 1023.69 573.91C1023.21 573.706 1022.79 573.412 1022.41 573.028C1022.04 572.632 1021.74 572.152 1021.51 571.588C1021.3 571.012 1021.19 570.364 1021.19 569.644C1021.19 568.912 1021.3 568.264 1021.51 567.7C1021.74 567.124 1022.04 566.638 1022.41 566.242C1022.79 565.846 1023.21 565.546 1023.69 565.342C1024.18 565.138 1024.7 565.036 1025.24 565.036C1025.78 565.036 1026.29 565.138 1026.77 565.342C1027.26 565.546 1027.69 565.846 1028.07 566.242C1028.44 566.638 1028.73 567.124 1028.95 567.7C1029.18 568.264 1029.29 568.912 1029.29 569.644C1029.29 570.364 1029.18 571.012 1028.95 571.588C1028.73 572.152 1028.44 572.632 1028.07 573.028C1027.69 573.412 1027.26 573.706 1026.77 573.91C1026.29 574.114 1025.78 574.216 1025.24 574.216ZM1025.24 572.992C1025.61 572.992 1025.95 572.914 1026.27 572.758C1026.58 572.59 1026.84 572.362 1027.06 572.074C1027.29 571.774 1027.46 571.42 1027.58 571.012C1027.7 570.604 1027.76 570.148 1027.76 569.644C1027.76 569.14 1027.7 568.684 1027.58 568.276C1027.46 567.856 1027.29 567.496 1027.06 567.196C1026.84 566.896 1026.58 566.668 1026.27 566.512C1025.95 566.344 1025.61 566.26 1025.24 566.26C1024.87 566.26 1024.53 566.344 1024.21 566.512C1023.9 566.668 1023.63 566.896 1023.4 567.196C1023.19 567.496 1023.02 567.856 1022.9 568.276C1022.78 568.684 1022.72 569.14 1022.72 569.644C1022.72 570.148 1022.78 570.604 1022.9 571.012C1023.02 571.42 1023.19 571.774 1023.4 572.074C1023.63 572.362 1023.9 572.59 1024.21 572.758C1024.53 572.914 1024.87 572.992 1025.24 572.992ZM1031.59 574V565.252H1032.82L1032.94 566.836H1033C1033.3 566.284 1033.66 565.846 1034.08 565.522C1034.51 565.198 1034.98 565.036 1035.48 565.036C1035.83 565.036 1036.14 565.096 1036.42 565.216L1036.13 566.512C1035.99 566.464 1035.85 566.428 1035.73 566.404C1035.61 566.38 1035.46 566.368 1035.28 566.368C1034.91 566.368 1034.52 566.518 1034.11 566.818C1033.72 567.118 1033.37 567.64 1033.07 568.384V574H1031.59ZM1040.65 574.216C1039.54 574.216 1038.66 573.82 1038 573.028C1037.35 572.236 1037.03 571.108 1037.03 569.644C1037.03 568.936 1037.13 568.3 1037.33 567.736C1037.55 567.16 1037.83 566.674 1038.18 566.278C1038.53 565.882 1038.93 565.576 1039.39 565.36C1039.84 565.144 1040.32 565.036 1040.83 565.036C1041.33 565.036 1041.77 565.126 1042.14 565.306C1042.51 565.486 1042.89 565.732 1043.27 566.044L1043.2 564.55V561.184H1044.7V574H1043.47L1043.35 572.974H1043.29C1042.94 573.31 1042.54 573.604 1042.09 573.856C1041.64 574.096 1041.16 574.216 1040.65 574.216ZM1040.97 572.974C1041.38 572.974 1041.76 572.878 1042.12 572.686C1042.48 572.482 1042.84 572.176 1043.2 571.768V567.196C1042.83 566.86 1042.47 566.626 1042.12 566.494C1041.79 566.35 1041.44 566.278 1041.08 566.278C1040.73 566.278 1040.4 566.362 1040.09 566.53C1039.79 566.686 1039.52 566.914 1039.3 567.214C1039.07 567.502 1038.89 567.85 1038.76 568.258C1038.62 568.666 1038.56 569.122 1038.56 569.626C1038.56 570.682 1038.77 571.504 1039.19 572.092C1039.61 572.68 1040.2 572.974 1040.97 572.974ZM1049.05 570.436C1048.97 569.968 1048.99 569.548 1049.08 569.176C1049.19 568.792 1049.33 568.444 1049.51 568.132C1049.69 567.808 1049.9 567.508 1050.13 567.232C1050.37 566.956 1050.59 566.686 1050.79 566.422C1051 566.146 1051.16 565.87 1051.3 565.594C1051.44 565.318 1051.51 565.018 1051.51 564.694C1051.51 564.214 1051.36 563.806 1051.06 563.47C1050.77 563.122 1050.34 562.948 1049.77 562.948C1049.37 562.948 1048.99 563.044 1048.63 563.236C1048.28 563.416 1047.97 563.668 1047.7 563.992L1046.85 563.218C1047.23 562.786 1047.68 562.432 1048.18 562.156C1048.7 561.868 1049.29 561.724 1049.95 561.724C1050.86 561.724 1051.58 561.982 1052.12 562.498C1052.68 563.002 1052.95 563.704 1052.95 564.604C1052.95 565 1052.88 565.36 1052.74 565.684C1052.59 566.008 1052.41 566.314 1052.2 566.602C1051.99 566.89 1051.77 567.178 1051.53 567.466C1051.3 567.742 1051.09 568.03 1050.88 568.33C1050.69 568.63 1050.54 568.954 1050.43 569.302C1050.32 569.638 1050.29 570.016 1050.34 570.436H1049.05ZM1049.73 574.216C1049.43 574.216 1049.18 574.114 1048.97 573.91C1048.77 573.694 1048.67 573.424 1048.67 573.1C1048.67 572.752 1048.77 572.476 1048.97 572.272C1049.18 572.056 1049.43 571.948 1049.73 571.948C1050.03 571.948 1050.28 572.056 1050.49 572.272C1050.7 572.476 1050.81 572.752 1050.81 573.1C1050.81 573.424 1050.7 573.694 1050.49 573.91C1050.28 574.114 1050.03 574.216 1049.73 574.216Z" fill="#00917C"/>
<line x1="484.949" y1="328.403" x2="1009.04" y2="329.035" stroke="black"/>
<path d="M488.868 288V276.192H495.672V277.452H490.362V281.16H494.844V282.438H490.362V286.722H495.852V288H488.868ZM498.216 288V279.252H499.44L499.566 280.512H499.62C500.004 280.092 500.418 279.744 500.862 279.468C501.318 279.18 501.81 279.036 502.338 279.036C503.01 279.036 503.532 279.186 503.904 279.486C504.288 279.774 504.57 280.182 504.75 280.71C505.206 280.206 505.662 279.804 506.118 279.504C506.586 279.192 507.09 279.036 507.63 279.036C508.53 279.036 509.196 279.324 509.628 279.9C510.072 280.476 510.294 281.328 510.294 282.456V288H508.818V282.654C508.818 281.826 508.686 281.232 508.422 280.872C508.158 280.5 507.75 280.314 507.198 280.314C506.538 280.314 505.806 280.764 505.002 281.664V288H503.526V282.654C503.526 281.826 503.394 281.232 503.13 280.872C502.866 280.5 502.452 280.314 501.888 280.314C501.228 280.314 500.496 280.764 499.692 281.664V288H498.216ZM515.156 288.216C514.424 288.216 513.812 288 513.32 287.568C512.84 287.136 512.6 286.524 512.6 285.732C512.6 284.772 513.026 284.04 513.878 283.536C514.73 283.02 516.092 282.66 517.964 282.456C517.964 282.18 517.934 281.91 517.874 281.646C517.826 281.382 517.736 281.148 517.604 280.944C517.472 280.74 517.286 280.578 517.046 280.458C516.818 280.326 516.524 280.26 516.164 280.26C515.66 280.26 515.186 280.356 514.742 280.548C514.298 280.74 513.902 280.956 513.554 281.196L512.978 280.17C513.386 279.906 513.884 279.654 514.472 279.414C515.06 279.162 515.708 279.036 516.416 279.036C517.484 279.036 518.258 279.366 518.738 280.026C519.218 280.674 519.458 281.544 519.458 282.636V288H518.234L518.108 286.956H518.054C517.634 287.304 517.184 287.604 516.704 287.856C516.224 288.096 515.708 288.216 515.156 288.216ZM515.588 287.028C516.008 287.028 516.404 286.932 516.776 286.74C517.148 286.536 517.544 286.242 517.964 285.858V283.428C517.232 283.524 516.614 283.638 516.11 283.77C515.618 283.902 515.216 284.058 514.904 284.238C514.604 284.418 514.382 284.628 514.238 284.868C514.106 285.096 514.04 285.348 514.04 285.624C514.04 286.128 514.19 286.488 514.49 286.704C514.79 286.92 515.156 287.028 515.588 287.028ZM522.21 288V279.252H523.686V288H522.21ZM522.966 277.452C522.678 277.452 522.432 277.362 522.228 277.182C522.036 277.002 521.94 276.774 521.94 276.498C521.94 276.21 522.036 275.982 522.228 275.814C522.432 275.634 522.678 275.544 522.966 275.544C523.254 275.544 523.494 275.634 523.686 275.814C523.89 275.982 523.992 276.21 523.992 276.498C523.992 276.774 523.89 277.002 523.686 277.182C523.494 277.362 523.254 277.452 522.966 277.452ZM528.206 288.216C527.642 288.216 527.24 288.048 527 287.712C526.76 287.376 526.64 286.884 526.64 286.236V275.184H528.116V286.344C528.116 286.584 528.158 286.752 528.242 286.848C528.326 286.944 528.422 286.992 528.53 286.992C528.578 286.992 528.62 286.992 528.656 286.992C528.704 286.992 528.77 286.98 528.854 286.956L529.052 288.072C528.956 288.12 528.842 288.156 528.71 288.18C528.578 288.204 528.41 288.216 528.206 288.216Z" fill="black"/>
<line x1="484.976" y1="437.618" x2="1009.07" y2="438.775" stroke="black"/>
<path d="M486.006 422V410.192H489.372C490.032 410.192 490.632 410.252 491.172 410.372C491.724 410.492 492.192 410.69 492.576 410.966C492.96 411.23 493.26 411.584 493.476 412.028C493.692 412.472 493.8 413.018 493.8 413.666C493.8 414.29 493.692 414.83 493.476 415.286C493.272 415.742 492.978 416.12 492.594 416.42C492.21 416.72 491.748 416.948 491.208 417.104C490.68 417.248 490.092 417.32 489.444 417.32H487.5V422H486.006ZM487.5 416.096H489.264C490.296 416.096 491.058 415.904 491.55 415.52C492.054 415.124 492.306 414.506 492.306 413.666C492.306 412.814 492.042 412.226 491.514 411.902C490.998 411.566 490.224 411.398 489.192 411.398H487.5V416.096ZM497.3 422.216C496.568 422.216 495.956 422 495.464 421.568C494.984 421.136 494.744 420.524 494.744 419.732C494.744 418.772 495.17 418.04 496.022 417.536C496.874 417.02 498.236 416.66 500.108 416.456C500.108 416.18 500.078 415.91 500.018 415.646C499.97 415.382 499.88 415.148 499.748 414.944C499.616 414.74 499.43 414.578 499.19 414.458C498.962 414.326 498.668 414.26 498.308 414.26C497.804 414.26 497.33 414.356 496.886 414.548C496.442 414.74 496.046 414.956 495.698 415.196L495.122 414.17C495.53 413.906 496.028 413.654 496.616 413.414C497.204 413.162 497.852 413.036 498.56 413.036C499.628 413.036 500.402 413.366 500.882 414.026C501.362 414.674 501.602 415.544 501.602 416.636V422H500.378L500.252 420.956H500.198C499.778 421.304 499.328 421.604 498.848 421.856C498.368 422.096 497.852 422.216 497.3 422.216ZM497.732 421.028C498.152 421.028 498.548 420.932 498.92 420.74C499.292 420.536 499.688 420.242 500.108 419.858V417.428C499.376 417.524 498.758 417.638 498.254 417.77C497.762 417.902 497.36 418.058 497.048 418.238C496.748 418.418 496.526 418.628 496.382 418.868C496.25 419.096 496.184 419.348 496.184 419.624C496.184 420.128 496.334 420.488 496.634 420.704C496.934 420.92 497.3 421.028 497.732 421.028ZM506.64 422.216C506.016 422.216 505.422 422.102 504.858 421.874C504.294 421.646 503.802 421.358 503.382 421.01L504.12 420.02C504.504 420.332 504.894 420.584 505.29 420.776C505.698 420.968 506.166 421.064 506.694 421.064C507.27 421.064 507.702 420.932 507.99 420.668C508.278 420.404 508.422 420.08 508.422 419.696C508.422 419.468 508.362 419.27 508.242 419.102C508.122 418.934 507.966 418.79 507.774 418.67C507.594 418.538 507.384 418.424 507.144 418.328C506.904 418.232 506.664 418.136 506.424 418.04C506.112 417.932 505.8 417.812 505.488 417.68C505.176 417.536 504.894 417.368 504.642 417.176C504.402 416.972 504.204 416.738 504.048 416.474C503.892 416.21 503.814 415.892 503.814 415.52C503.814 415.172 503.88 414.848 504.012 414.548C504.156 414.236 504.354 413.972 504.606 413.756C504.87 413.528 505.188 413.354 505.56 413.234C505.932 413.102 506.352 413.036 506.82 413.036C507.372 413.036 507.876 413.132 508.332 413.324C508.8 413.516 509.202 413.75 509.538 414.026L508.836 414.962C508.536 414.734 508.224 414.548 507.9 414.404C507.576 414.26 507.222 414.188 506.838 414.188C506.286 414.188 505.878 414.314 505.614 414.566C505.362 414.818 505.236 415.112 505.236 415.448C505.236 415.652 505.29 415.832 505.398 415.988C505.506 416.132 505.65 416.264 505.83 416.384C506.01 416.492 506.214 416.594 506.442 416.69C506.682 416.774 506.928 416.864 507.18 416.96C507.492 417.08 507.804 417.206 508.116 417.338C508.44 417.47 508.728 417.638 508.98 417.842C509.232 418.034 509.436 418.274 509.592 418.562C509.76 418.85 509.844 419.198 509.844 419.606C509.844 419.966 509.772 420.302 509.628 420.614C509.496 420.926 509.292 421.202 509.016 421.442C508.752 421.682 508.416 421.868 508.008 422C507.612 422.144 507.156 422.216 506.64 422.216ZM514.181 422.216C513.557 422.216 512.963 422.102 512.399 421.874C511.835 421.646 511.343 421.358 510.923 421.01L511.661 420.02C512.045 420.332 512.435 420.584 512.831 420.776C513.239 420.968 513.707 421.064 514.235 421.064C514.811 421.064 515.243 420.932 515.531 420.668C515.819 420.404 515.963 420.08 515.963 419.696C515.963 419.468 515.903 419.27 515.783 419.102C515.663 418.934 515.507 418.79 515.315 418.67C515.135 418.538 514.925 418.424 514.685 418.328C514.445 418.232 514.205 418.136 513.965 418.04C513.653 417.932 513.341 417.812 513.029 417.68C512.717 417.536 512.435 417.368 512.183 417.176C511.943 416.972 511.745 416.738 511.589 416.474C511.433 416.21 511.355 415.892 511.355 415.52C511.355 415.172 511.421 414.848 511.553 414.548C511.697 414.236 511.895 413.972 512.147 413.756C512.411 413.528 512.729 413.354 513.101 413.234C513.473 413.102 513.893 413.036 514.361 413.036C514.913 413.036 515.417 413.132 515.873 413.324C516.341 413.516 516.743 413.75 517.079 414.026L516.377 414.962C516.077 414.734 515.765 414.548 515.441 414.404C515.117 414.26 514.763 414.188 514.379 414.188C513.827 414.188 513.419 414.314 513.155 414.566C512.903 414.818 512.777 415.112 512.777 415.448C512.777 415.652 512.831 415.832 512.939 415.988C513.047 416.132 513.191 416.264 513.371 416.384C513.551 416.492 513.755 416.594 513.983 416.69C514.223 416.774 514.469 416.864 514.721 416.96C515.033 417.08 515.345 417.206 515.657 417.338C515.981 417.47 516.269 417.638 516.521 417.842C516.773 418.034 516.977 418.274 517.133 418.562C517.301 418.85 517.385 419.198 517.385 419.606C517.385 419.966 517.313 420.302 517.169 420.614C517.037 420.926 516.833 421.202 516.557 421.442C516.293 421.682 515.957 421.868 515.549 422C515.153 422.144 514.697 422.216 514.181 422.216ZM520.822 422L518.392 413.252H519.904L521.2 418.31C521.296 418.73 521.386 419.138 521.47 419.534C521.554 419.93 521.638 420.332 521.722 420.74H521.794C521.89 420.332 521.986 419.93 522.082 419.534C522.178 419.126 522.28 418.718 522.388 418.31L523.738 413.252H525.178L526.546 418.31C526.654 418.73 526.756 419.138 526.852 419.534C526.96 419.93 527.062 420.332 527.158 420.74H527.23C527.326 420.332 527.416 419.93 527.5 419.534C527.584 419.138 527.674 418.73 527.77 418.31L529.048 413.252H530.452L528.112 422H526.312L525.052 417.302C524.944 416.882 524.842 416.468 524.746 416.06C524.662 415.652 524.566 415.226 524.458 414.782H524.386C524.29 415.226 524.194 415.658 524.098 416.078C524.002 416.486 523.894 416.9 523.774 417.32L522.55 422H520.822ZM535.688 422.216C535.148 422.216 534.632 422.114 534.14 421.91C533.66 421.706 533.234 421.412 532.862 421.028C532.49 420.632 532.19 420.152 531.962 419.588C531.746 419.012 531.638 418.364 531.638 417.644C531.638 416.912 531.746 416.264 531.962 415.7C532.19 415.124 532.49 414.638 532.862 414.242C533.234 413.846 533.66 413.546 534.14 413.342C534.632 413.138 535.148 413.036 535.688 413.036C536.228 413.036 536.738 413.138 537.218 413.342C537.71 413.546 538.142 413.846 538.514 414.242C538.886 414.638 539.18 415.124 539.396 415.7C539.624 416.264 539.738 416.912 539.738 417.644C539.738 418.364 539.624 419.012 539.396 419.588C539.18 420.152 538.886 420.632 538.514 421.028C538.142 421.412 537.71 421.706 537.218 421.91C536.738 422.114 536.228 422.216 535.688 422.216ZM535.688 420.992C536.06 420.992 536.402 420.914 536.714 420.758C537.026 420.59 537.29 420.362 537.506 420.074C537.734 419.774 537.908 419.42 538.028 419.012C538.148 418.604 538.208 418.148 538.208 417.644C538.208 417.14 538.148 416.684 538.028 416.276C537.908 415.856 537.734 415.496 537.506 415.196C537.29 414.896 537.026 414.668 536.714 414.512C536.402 414.344 536.06 414.26 535.688 414.26C535.316 414.26 534.974 414.344 534.662 414.512C534.35 414.668 534.08 414.896 533.852 415.196C533.636 415.496 533.468 415.856 533.348 416.276C533.228 416.684 533.168 417.14 533.168 417.644C533.168 418.148 533.228 418.604 533.348 419.012C533.468 419.42 533.636 419.774 533.852 420.074C534.08 420.362 534.35 420.59 534.662 420.758C534.974 420.914 535.316 420.992 535.688 420.992ZM542.041 422V413.252H543.265L543.391 414.836H543.445C543.745 414.284 544.105 413.846 544.525 413.522C544.957 413.198 545.425 413.036 545.929 413.036C546.277 413.036 546.589 413.096 546.865 413.216L546.577 414.512C546.433 414.464 546.301 414.428 546.181 414.404C546.061 414.38 545.911 414.368 545.731 414.368C545.359 414.368 544.969 414.518 544.561 414.818C544.165 415.118 543.817 415.64 543.517 416.384V422H542.041ZM551.094 422.216C549.99 422.216 549.108 421.82 548.448 421.028C547.8 420.236 547.476 419.108 547.476 417.644C547.476 416.936 547.578 416.3 547.782 415.736C547.998 415.16 548.28 414.674 548.628 414.278C548.976 413.882 549.378 413.576 549.834 413.36C550.29 413.144 550.77 413.036 551.274 413.036C551.778 413.036 552.216 413.126 552.588 413.306C552.96 413.486 553.338 413.732 553.722 414.044L553.65 412.55V409.184H555.144V422H553.92L553.794 420.974H553.74C553.392 421.31 552.99 421.604 552.534 421.856C552.09 422.096 551.61 422.216 551.094 422.216ZM551.418 420.974C551.826 420.974 552.21 420.878 552.57 420.686C552.93 420.482 553.29 420.176 553.65 419.768V415.196C553.278 414.86 552.918 414.626 552.57 414.494C552.234 414.35 551.886 414.278 551.526 414.278C551.178 414.278 550.848 414.362 550.536 414.53C550.236 414.686 549.972 414.914 549.744 415.214C549.516 415.502 549.336 415.85 549.204 416.258C549.072 416.666 549.006 417.122 549.006 417.626C549.006 418.682 549.216 419.504 549.636 420.092C550.056 420.68 550.65 420.974 551.418 420.974Z" fill="black"/>
<line x1="483.041" y1="296.929" x2="482.959" y2="328.074" stroke="black"/>
<path d="M580.063 850V833.785H585.79C588.458 833.785 590.513 834.483 591.954 835.878C593.411 837.273 594.139 839.274 594.139 841.881C594.139 844.488 593.411 846.496 591.954 847.907C590.513 849.302 588.458 850 585.79 850H580.063ZM582.455 847.999H585.652C589.654 847.999 591.655 845.96 591.655 841.881C591.655 837.818 589.654 835.786 585.652 835.786H582.455V847.999ZM601.959 850.207C600.824 850.207 599.843 849.969 599.015 849.494C598.187 849.019 597.543 848.352 597.083 847.493C596.638 846.619 596.416 845.584 596.416 844.388C596.416 843.192 596.638 842.165 597.083 841.306C597.543 840.432 598.187 839.757 599.015 839.282C599.843 838.807 600.824 838.569 601.959 838.569C603.063 838.569 604.029 838.807 604.857 839.282C605.685 839.757 606.329 840.432 606.789 841.306C607.249 842.165 607.479 843.192 607.479 844.388C607.479 845.584 607.249 846.619 606.789 847.493C606.329 848.352 605.685 849.019 604.857 849.494C604.029 849.969 603.063 850.207 601.959 850.207ZM601.959 848.413C602.909 848.413 603.676 848.068 604.259 847.378C604.841 846.688 605.133 845.691 605.133 844.388C605.133 843.085 604.841 842.096 604.259 841.421C603.676 840.731 602.909 840.386 601.959 840.386C600.993 840.386 600.218 840.731 599.636 841.421C599.053 842.096 598.762 843.085 598.762 844.388C598.762 845.691 599.053 846.688 599.636 847.378C600.218 848.068 600.993 848.413 601.959 848.413ZM610.088 850V838.776H612.342V840.639C612.725 839.964 613.246 839.451 613.906 839.098C614.58 838.745 615.332 838.569 616.16 838.569C618.812 838.569 620.139 840.072 620.139 843.077V850H617.816V843.215C617.816 842.249 617.624 841.544 617.241 841.099C616.873 840.654 616.29 840.432 615.493 840.432C614.557 840.432 613.806 840.731 613.239 841.329C612.687 841.912 612.411 842.686 612.411 843.652V850H610.088ZM623.81 839.351L622.798 838.569C623.15 838.186 623.411 837.833 623.58 837.511C623.748 837.189 623.863 836.859 623.925 836.522H622.637V833.785H625.397V835.648C625.397 836.338 625.282 836.982 625.052 837.58C624.822 838.178 624.408 838.768 623.81 839.351ZM633.222 850.207C631.812 850.207 630.761 849.847 630.071 849.126C629.381 848.405 629.036 847.363 629.036 845.998V840.57H626.851V838.776H629.036V835.395H631.359V838.776H634.832V840.57H631.359V845.814C631.359 846.627 631.528 847.24 631.865 847.654C632.218 848.068 632.785 848.275 633.567 848.275C633.813 848.275 634.05 848.252 634.28 848.206C634.51 848.145 634.74 848.076 634.97 847.999L635.338 849.747C635.108 849.885 634.786 849.992 634.372 850.069C633.974 850.161 633.59 850.207 633.222 850.207ZM642.881 850V833.785H645.204V840.524C645.587 839.88 646.101 839.397 646.745 839.075C647.404 838.738 648.14 838.569 648.953 838.569C651.605 838.569 652.932 840.072 652.932 843.077V850H650.609V843.215C650.609 842.249 650.417 841.544 650.034 841.099C649.666 840.654 649.083 840.432 648.286 840.432C647.35 840.432 646.599 840.731 646.032 841.329C645.48 841.912 645.204 842.686 645.204 843.652V850H642.881ZM659.721 850.207C658.939 850.207 658.241 850.054 657.628 849.747C657.014 849.44 656.524 849.026 656.156 848.505C655.803 847.984 655.627 847.393 655.627 846.734C655.627 845.906 655.834 845.254 656.248 844.779C656.677 844.304 657.375 843.959 658.341 843.744C659.322 843.529 660.641 843.422 662.297 843.422H663.079V842.824C663.079 841.95 662.895 841.321 662.527 840.938C662.159 840.555 661.553 840.363 660.71 840.363C660.066 840.363 659.422 840.463 658.778 840.662C658.134 840.846 657.474 841.145 656.8 841.559L656.087 839.926C656.669 839.512 657.398 839.182 658.272 838.937C659.146 838.692 659.981 838.569 660.779 838.569C662.312 838.569 663.447 838.937 664.183 839.673C664.919 840.394 665.287 841.528 665.287 843.077V850H663.102V848.137C662.826 848.781 662.396 849.287 661.814 849.655C661.231 850.023 660.533 850.207 659.721 850.207ZM660.181 848.551C661.009 848.551 661.699 848.26 662.251 847.677C662.803 847.094 663.079 846.358 663.079 845.469V844.848H662.32C661.2 844.848 660.319 844.902 659.675 845.009C659.046 845.116 658.594 845.3 658.318 845.561C658.057 845.806 657.927 846.151 657.927 846.596C657.927 847.179 658.126 847.654 658.525 848.022C658.923 848.375 659.475 848.551 660.181 848.551ZM671.663 850L666.833 838.776H669.34L672.767 847.309L676.286 838.776H678.655L673.756 850H671.663ZM685.388 850.207C683.548 850.207 682.099 849.693 681.041 848.666C679.983 847.623 679.454 846.205 679.454 844.411C679.454 843.261 679.684 842.249 680.144 841.375C680.619 840.486 681.271 839.796 682.099 839.305C682.927 838.814 683.877 838.569 684.951 838.569C686.499 838.569 687.718 839.067 688.608 840.064C689.497 841.045 689.942 842.402 689.942 844.135V844.917H681.708C681.876 847.248 683.111 848.413 685.411 848.413C686.055 848.413 686.683 848.313 687.297 848.114C687.925 847.915 688.516 847.585 689.068 847.125L689.758 848.735C689.252 849.195 688.6 849.555 687.803 849.816C687.005 850.077 686.2 850.207 685.388 850.207ZM685.043 840.202C684.077 840.202 683.31 840.501 682.743 841.099C682.175 841.697 681.83 842.494 681.708 843.491H687.987C687.941 842.448 687.665 841.643 687.159 841.076C686.653 840.493 685.947 840.202 685.043 840.202ZM702.104 850.207C701.322 850.207 700.625 850.054 700.011 849.747C699.398 849.44 698.907 849.026 698.539 848.505C698.187 847.984 698.01 847.393 698.01 846.734C698.01 845.906 698.217 845.254 698.631 844.779C699.061 844.304 699.758 843.959 700.724 843.744C701.706 843.529 703.024 843.422 704.68 843.422H705.462V842.824C705.462 841.95 705.278 841.321 704.91 840.938C704.542 840.555 703.937 840.363 703.093 840.363C702.449 840.363 701.805 840.463 701.161 840.662C700.517 840.846 699.858 841.145 699.183 841.559L698.47 839.926C699.053 839.512 699.781 839.182 700.655 838.937C701.529 838.692 702.365 838.569 703.162 838.569C704.696 838.569 705.83 838.937 706.566 839.673C707.302 840.394 707.67 841.528 707.67 843.077V850H705.485V848.137C705.209 848.781 704.78 849.287 704.197 849.655C703.615 850.023 702.917 850.207 702.104 850.207ZM702.564 848.551C703.392 848.551 704.082 848.26 704.634 847.677C705.186 847.094 705.462 846.358 705.462 845.469V844.848H704.703C703.584 844.848 702.702 844.902 702.058 845.009C701.43 845.116 700.977 845.3 700.701 845.561C700.441 845.806 700.31 846.151 700.31 846.596C700.31 847.179 700.51 847.654 700.908 848.022C701.307 848.375 701.859 848.551 702.564 848.551ZM710.87 850V838.776H713.124V840.639C713.507 839.964 714.028 839.451 714.688 839.098C715.362 838.745 716.114 838.569 716.942 838.569C719.594 838.569 720.921 840.072 720.921 843.077V850H718.598V843.215C718.598 842.249 718.406 841.544 718.023 841.099C717.655 840.654 717.072 840.432 716.275 840.432C715.339 840.432 714.588 840.731 714.021 841.329C713.469 841.912 713.193 842.686 713.193 843.652V850H710.87ZM733.752 850.207C732.97 850.207 732.272 850.054 731.659 849.747C731.045 849.44 730.555 849.026 730.187 848.505C729.834 847.984 729.658 847.393 729.658 846.734C729.658 845.906 729.865 845.254 730.279 844.779C730.708 844.304 731.406 843.959 732.372 843.744C733.353 843.529 734.672 843.422 736.328 843.422H737.11V842.824C737.11 841.95 736.926 841.321 736.558 840.938C736.19 840.555 735.584 840.363 734.741 840.363C734.097 840.363 733.453 840.463 732.809 840.662C732.165 840.846 731.505 841.145 730.831 841.559L730.118 839.926C730.7 839.512 731.429 839.182 732.303 838.937C733.177 838.692 734.012 838.569 734.81 838.569C736.343 838.569 737.478 838.937 738.214 839.673C738.95 840.394 739.318 841.528 739.318 843.077V850H737.133V848.137C736.857 848.781 736.427 849.287 735.845 849.655C735.262 850.023 734.564 850.207 733.752 850.207ZM734.212 848.551C735.04 848.551 735.73 848.26 736.282 847.677C736.834 847.094 737.11 846.358 737.11 845.469V844.848H736.351C735.231 844.848 734.35 844.902 733.706 845.009C733.077 845.116 732.625 845.3 732.349 845.561C732.088 845.806 731.958 846.151 731.958 846.596C731.958 847.179 732.157 847.654 732.556 848.022C732.954 848.375 733.506 848.551 734.212 848.551ZM747.462 850.207C746.312 850.207 745.316 849.969 744.472 849.494C743.644 849.003 743 848.321 742.54 847.447C742.08 846.558 741.85 845.515 741.85 844.319C741.85 842.54 742.356 841.137 743.368 840.11C744.38 839.083 745.745 838.569 747.462 838.569C748.168 838.569 748.865 838.692 749.555 838.937C750.245 839.182 750.813 839.52 751.257 839.949L750.521 841.582C750.092 841.183 749.617 840.892 749.095 840.708C748.589 840.509 748.106 840.409 747.646 840.409C746.558 840.409 745.714 840.754 745.116 841.444C744.534 842.119 744.242 843.085 744.242 844.342C744.242 845.599 744.534 846.588 745.116 847.309C745.714 848.014 746.558 848.367 747.646 848.367C748.106 848.367 748.589 848.275 749.095 848.091C749.617 847.892 750.092 847.593 750.521 847.194L751.257 848.85C750.813 849.264 750.238 849.594 749.532 849.839C748.842 850.084 748.152 850.207 747.462 850.207ZM757.974 850.207C756.824 850.207 755.827 849.969 754.984 849.494C754.156 849.003 753.512 848.321 753.052 847.447C752.592 846.558 752.362 845.515 752.362 844.319C752.362 842.54 752.868 841.137 753.88 840.11C754.892 839.083 756.257 838.569 757.974 838.569C758.679 838.569 759.377 838.692 760.067 838.937C760.757 839.182 761.324 839.52 761.769 839.949L761.033 841.582C760.604 841.183 760.128 840.892 759.607 840.708C759.101 840.509 758.618 840.409 758.158 840.409C757.069 840.409 756.226 840.754 755.628 841.444C755.045 842.119 754.754 843.085 754.754 844.342C754.754 845.599 755.045 846.588 755.628 847.309C756.226 848.014 757.069 848.367 758.158 848.367C758.618 848.367 759.101 848.275 759.607 848.091C760.128 847.892 760.604 847.593 761.033 847.194L761.769 848.85C761.324 849.264 760.749 849.594 760.044 849.839C759.354 850.084 758.664 850.207 757.974 850.207ZM768.417 850.207C767.282 850.207 766.301 849.969 765.473 849.494C764.645 849.019 764.001 848.352 763.541 847.493C763.096 846.619 762.874 845.584 762.874 844.388C762.874 843.192 763.096 842.165 763.541 841.306C764.001 840.432 764.645 839.757 765.473 839.282C766.301 838.807 767.282 838.569 768.417 838.569C769.521 838.569 770.487 838.807 771.315 839.282C772.143 839.757 772.787 840.432 773.247 841.306C773.707 842.165 773.937 843.192 773.937 844.388C773.937 845.584 773.707 846.619 773.247 847.493C772.787 848.352 772.143 849.019 771.315 849.494C770.487 849.969 769.521 850.207 768.417 850.207ZM768.417 848.413C769.367 848.413 770.134 848.068 770.717 847.378C771.299 846.688 771.591 845.691 771.591 844.388C771.591 843.085 771.299 842.096 770.717 841.421C770.134 840.731 769.367 840.386 768.417 840.386C767.451 840.386 766.676 840.731 766.094 841.421C765.511 842.096 765.22 843.085 765.22 844.388C765.22 845.691 765.511 846.688 766.094 847.378C766.676 848.068 767.451 848.413 768.417 848.413ZM780.548 850.207C777.834 850.207 776.477 848.697 776.477 845.676V838.776H778.8V845.699C778.8 846.604 778.984 847.271 779.352 847.7C779.72 848.129 780.302 848.344 781.1 848.344C781.974 848.344 782.679 848.053 783.216 847.47C783.768 846.887 784.044 846.105 784.044 845.124V838.776H786.367V850H784.113V848.206C783.745 848.865 783.254 849.364 782.641 849.701C782.027 850.038 781.33 850.207 780.548 850.207ZM789.64 850V838.776H791.894V840.639C792.278 839.964 792.799 839.451 793.458 839.098C794.133 838.745 794.884 838.569 795.712 838.569C798.365 838.569 799.691 840.072 799.691 843.077V850H797.368V843.215C797.368 842.249 797.177 841.544 796.793 841.099C796.425 840.654 795.843 840.432 795.045 840.432C794.11 840.432 793.359 840.731 792.791 841.329C792.239 841.912 791.963 842.686 791.963 843.652V850H789.64ZM807.676 850.207C806.266 850.207 805.215 849.847 804.525 849.126C803.835 848.405 803.49 847.363 803.49 845.998V840.57H801.305V838.776H803.49V835.395H805.813V838.776H809.286V840.57H805.813V845.814C805.813 846.627 805.982 847.24 806.319 847.654C806.672 848.068 807.239 848.275 808.021 848.275C808.267 848.275 808.504 848.252 808.734 848.206C808.964 848.145 809.194 848.076 809.424 847.999L809.792 849.747C809.562 849.885 809.24 849.992 808.826 850.069C808.428 850.161 808.044 850.207 807.676 850.207ZM813.913 845.515V844.71C813.913 843.974 814.051 843.284 814.327 842.64C814.618 841.981 815.109 841.252 815.799 840.455C816.336 839.842 816.711 839.32 816.926 838.891C817.141 838.446 817.248 837.979 817.248 837.488C817.248 836.905 817.041 836.445 816.627 836.108C816.213 835.771 815.63 835.602 814.879 835.602C813.3 835.602 811.874 836.192 810.601 837.373L809.773 835.556C810.386 834.958 811.161 834.483 812.096 834.13C813.047 833.762 814.02 833.578 815.017 833.578C816.397 833.578 817.509 833.923 818.352 834.613C819.195 835.288 819.617 836.177 819.617 837.281C819.617 838.002 819.456 838.676 819.134 839.305C818.827 839.918 818.283 840.608 817.501 841.375C816.78 842.096 816.274 842.732 815.983 843.284C815.692 843.821 815.515 844.357 815.454 844.894L815.362 845.515H813.913ZM813.269 850V847.263H816.006V850H813.269Z" fill="black"/>
<path d="M827.757 850V838.776H830.011V840.777C830.593 839.443 831.805 838.699 833.645 838.546L834.404 838.5L834.565 840.478L833.162 840.616C831.122 840.815 830.103 841.866 830.103 843.767V850H827.757ZM841.446 850.207C839.606 850.207 838.157 849.693 837.099 848.666C836.041 847.623 835.512 846.205 835.512 844.411C835.512 843.261 835.742 842.249 836.202 841.375C836.678 840.486 837.329 839.796 838.157 839.305C838.985 838.814 839.936 838.569 841.009 838.569C842.558 838.569 843.777 839.067 844.666 840.064C845.556 841.045 846 842.402 846 844.135V844.917H837.766C837.935 847.248 839.169 848.413 841.469 848.413C842.113 848.413 842.742 848.313 843.355 848.114C843.984 847.915 844.574 847.585 845.126 847.125L845.816 848.735C845.31 849.195 844.659 849.555 843.861 849.816C843.064 850.077 842.259 850.207 841.446 850.207ZM841.101 840.202C840.135 840.202 839.369 840.501 838.801 841.099C838.234 841.697 837.889 842.494 837.766 843.491H844.045C843.999 842.448 843.723 841.643 843.217 841.076C842.711 840.493 842.006 840.202 841.101 840.202ZM853.616 854.347C852.604 854.347 851.661 854.224 850.787 853.979C849.913 853.749 849.139 853.381 848.464 852.875L849.177 851.219C849.852 851.679 850.542 852.016 851.247 852.231C851.952 852.446 852.688 852.553 853.455 852.553C855.602 852.553 856.675 851.48 856.675 849.333V847.562C856.353 848.237 855.847 848.766 855.157 849.149C854.482 849.532 853.723 849.724 852.88 849.724C851.868 849.724 850.986 849.494 850.235 849.034C849.484 848.559 848.901 847.907 848.487 847.079C848.073 846.236 847.866 845.254 847.866 844.135C847.866 843.031 848.073 842.065 848.487 841.237C848.901 840.394 849.484 839.742 850.235 839.282C850.986 838.807 851.868 838.569 852.88 838.569C853.739 838.569 854.505 838.761 855.18 839.144C855.855 839.527 856.353 840.056 856.675 840.731V838.776H858.929V849.057C858.929 850.82 858.477 852.139 857.572 853.013C856.667 853.902 855.349 854.347 853.616 854.347ZM853.432 847.907C854.413 847.907 855.195 847.57 855.778 846.895C856.361 846.22 856.652 845.3 856.652 844.135C856.652 842.97 856.361 842.057 855.778 841.398C855.195 840.723 854.413 840.386 853.432 840.386C852.451 840.386 851.669 840.723 851.086 841.398C850.503 842.057 850.212 842.97 850.212 844.135C850.212 845.3 850.503 846.22 851.086 846.895C851.669 847.57 852.451 847.907 853.432 847.907ZM861.982 836.177V833.762H864.696V836.177H861.982ZM862.189 850V838.776H864.512V850H862.189ZM871.715 850.207C870.795 850.207 869.936 850.092 869.139 849.862C868.342 849.617 867.675 849.279 867.138 848.85L867.805 847.286C868.372 847.685 868.993 847.991 869.668 848.206C870.358 848.421 871.048 848.528 871.738 848.528C872.551 848.528 873.164 848.382 873.578 848.091C873.992 847.8 874.199 847.409 874.199 846.918C874.199 846.519 874.061 846.213 873.785 845.998C873.509 845.768 873.095 845.592 872.543 845.469L870.358 845.032C868.426 844.633 867.46 843.637 867.46 842.042C867.46 840.984 867.882 840.141 868.725 839.512C869.568 838.883 870.672 838.569 872.037 838.569C872.819 838.569 873.563 838.684 874.268 838.914C874.989 839.144 875.587 839.489 876.062 839.949L875.395 841.513C874.935 841.114 874.406 840.808 873.808 840.593C873.21 840.378 872.62 840.271 872.037 840.271C871.24 840.271 870.634 840.424 870.22 840.731C869.806 841.022 869.599 841.421 869.599 841.927C869.599 842.694 870.105 843.184 871.117 843.399L873.302 843.836C874.299 844.035 875.05 844.373 875.556 844.848C876.077 845.323 876.338 845.967 876.338 846.78C876.338 847.853 875.916 848.697 875.073 849.31C874.23 849.908 873.11 850.207 871.715 850.207ZM883.594 850.207C882.184 850.207 881.133 849.847 880.443 849.126C879.753 848.405 879.408 847.363 879.408 845.998V840.57H877.223V838.776H879.408V835.395H881.731V838.776H885.204V840.57H881.731V845.814C881.731 846.627 881.9 847.24 882.237 847.654C882.59 848.068 883.157 848.275 883.939 848.275C884.185 848.275 884.422 848.252 884.652 848.206C884.882 848.145 885.112 848.076 885.342 847.999L885.71 849.747C885.48 849.885 885.158 849.992 884.744 850.069C884.346 850.161 883.962 850.207 883.594 850.207ZM892.365 850.207C890.525 850.207 889.076 849.693 888.018 848.666C886.96 847.623 886.431 846.205 886.431 844.411C886.431 843.261 886.661 842.249 887.121 841.375C887.597 840.486 888.248 839.796 889.076 839.305C889.904 838.814 890.855 838.569 891.928 838.569C893.477 838.569 894.696 839.067 895.585 840.064C896.475 841.045 896.919 842.402 896.919 844.135V844.917H888.685C888.854 847.248 890.088 848.413 892.388 848.413C893.032 848.413 893.661 848.313 894.274 848.114C894.903 847.915 895.493 847.585 896.045 847.125L896.735 848.735C896.229 849.195 895.578 849.555 894.78 849.816C893.983 850.077 893.178 850.207 892.365 850.207ZM892.02 840.202C891.054 840.202 890.288 840.501 889.72 841.099C889.153 841.697 888.808 842.494 888.685 843.491H894.964C894.918 842.448 894.642 841.643 894.136 841.076C893.63 840.493 892.925 840.202 892.02 840.202ZM899.452 850V838.776H901.706V840.777C902.289 839.443 903.5 838.699 905.34 838.546L906.099 838.5L906.26 840.478L904.857 840.616C902.818 840.815 901.798 841.866 901.798 843.767V850H899.452ZM914.074 850V833.785H916.397V840.524C916.78 839.88 917.294 839.397 917.938 839.075C918.597 838.738 919.333 838.569 920.146 838.569C922.799 838.569 924.125 840.072 924.125 843.077V850H921.802V843.215C921.802 842.249 921.61 841.544 921.227 841.099C920.859 840.654 920.276 840.432 919.479 840.432C918.544 840.432 917.792 840.731 917.225 841.329C916.673 841.912 916.397 842.686 916.397 843.652V850H914.074ZM932.593 850.207C930.753 850.207 929.304 849.693 928.246 848.666C927.188 847.623 926.659 846.205 926.659 844.411C926.659 843.261 926.889 842.249 927.349 841.375C927.824 840.486 928.476 839.796 929.304 839.305C930.132 838.814 931.083 838.569 932.156 838.569C933.705 838.569 934.924 839.067 935.813 840.064C936.702 841.045 937.147 842.402 937.147 844.135V844.917H928.913C929.082 847.248 930.316 848.413 932.616 848.413C933.26 848.413 933.889 848.313 934.502 848.114C935.131 847.915 935.721 847.585 936.273 847.125L936.963 848.735C936.457 849.195 935.805 849.555 935.008 849.816C934.211 850.077 933.406 850.207 932.593 850.207ZM932.248 840.202C931.282 840.202 930.515 840.501 929.948 841.099C929.381 841.697 929.036 842.494 928.913 843.491H935.192C935.146 842.448 934.87 841.643 934.364 841.076C933.858 840.493 933.153 840.202 932.248 840.202ZM939.679 850V838.776H941.933V840.777C942.516 839.443 943.727 838.699 945.567 838.546L946.326 838.5L946.487 840.478L945.084 840.616C943.045 840.815 942.025 841.866 942.025 843.767V850H939.679ZM953.369 850.207C951.529 850.207 950.08 849.693 949.022 848.666C947.964 847.623 947.435 846.205 947.435 844.411C947.435 843.261 947.665 842.249 948.125 841.375C948.601 840.486 949.252 839.796 950.08 839.305C950.908 838.814 951.859 838.569 952.932 838.569C954.481 838.569 955.7 839.067 956.589 840.064C957.479 841.045 957.923 842.402 957.923 844.135V844.917H949.689C949.858 847.248 951.092 848.413 953.392 848.413C954.036 848.413 954.665 848.313 955.278 848.114C955.907 847.915 956.497 847.585 957.049 847.125L957.739 848.735C957.233 849.195 956.582 849.555 955.784 849.816C954.987 850.077 954.182 850.207 953.369 850.207ZM953.024 840.202C952.058 840.202 951.292 840.501 950.724 841.099C950.157 841.697 949.812 842.494 949.689 843.491H955.968C955.922 842.448 955.646 841.643 955.14 841.076C954.634 840.493 953.929 840.202 953.024 840.202Z" fill="#00917C"/>
</svg>
